<?xml version="1.0" encoding="utf-8" ?><svg xmlns="http://www.w3.org/2000/svg" xmlns:xlink="http://www.w3.org/1999/xlink" width="512" height="342" viewBox="0 0 512 342"><path fill="#E9ECEF" transform="scale(0.333333 0.333984)" d="M0 0L1536 0L1536 1024L0 1024L0 0Z"/><path fill="white" transform="scale(0.333333 0.333984)" d="M1216.34 140.942C1234.41 127.334 1254.33 119.969 1270.07 141.065L1326.78 141.023L1326.68 200.735C1326.68 206.292 1326.9 225.836 1326.13 230.453C1332.6 237.411 1340.77 245.729 1346.08 253.432C1352.56 262.844 1351.76 274.799 1358.22 284.381C1368.37 299.451 1379.35 313.919 1389.87 328.697C1395.49 336.587 1404.94 348.743 1408.35 357.518C1435.34 363.045 1436.23 387.981 1447.03 410.159C1452.9 422.209 1465.06 442.743 1462.51 455.505C1461.21 461.95 1457.4 467.615 1451.93 471.26C1445.18 475.697 1401.12 488.954 1390.69 492.275L1334.09 510.762C1333.85 527.504 1333.82 544.249 1334.03 560.992C1339.98 569.273 1414.83 708.366 1415.19 711.513L1413.76 713.734C1415.67 717.864 1427.2 727.951 1431.05 731.881C1419.44 741.997 1403.57 758.479 1389.26 763.831C1383.92 765.828 1362.61 766.585 1357.99 762.89C1354.9 753.842 1387.25 745.692 1387.97 733.889C1386.47 731.769 1383.46 732.713 1381.78 730.642C1365.38 710.332 1346.41 691.847 1329.73 671.827L1329.95 815.035C1329.95 837.519 1329.45 862.328 1330.12 884.608L207.39 884.459L207.523 756.06C207.484 725.896 206.942 695.152 207.291 665.037L207.206 637.625C158.131 595.755 117.355 509.13 120.701 444.183C146.644 434.425 185.524 413.823 208.524 398.841L208.545 140.843L1216.34 140.942Z"/><defs><linearGradient id="gradient_0" gradientUnits="userSpaceOnUse" x1="806.87677" y1="152.74629" x2="848.15204" y2="909.13574"><stop offset="0" stop-color="#033570"/><stop offset="1" stop-color="#315D8B"/></linearGradient></defs><path fill="url(#gradient_0)" transform="scale(0.333333 0.333984)" d="M1216.34 140.942C1234.41 127.334 1254.33 119.969 1270.07 141.065L1326.78 141.023L1326.68 200.735C1326.68 206.292 1326.9 225.836 1326.13 230.453C1332.6 237.411 1340.77 245.729 1346.08 253.432C1352.56 262.844 1351.76 274.799 1358.22 284.381C1368.37 299.451 1379.35 313.919 1389.87 328.697C1395.49 336.587 1404.94 348.743 1408.35 357.518C1435.34 363.045 1436.23 387.981 1447.03 410.159C1452.9 422.209 1465.06 442.743 1462.51 455.505C1461.21 461.95 1457.4 467.615 1451.93 471.26C1445.18 475.697 1401.12 488.954 1390.69 492.275L1334.09 510.762C1333.85 527.504 1333.82 544.249 1334.03 560.992C1339.98 569.273 1414.83 708.366 1415.19 711.513L1413.76 713.734C1415.67 717.864 1427.2 727.951 1431.05 731.881C1419.44 741.997 1403.57 758.479 1389.26 763.831C1383.92 765.828 1362.61 766.585 1357.99 762.89C1354.9 753.842 1387.25 745.692 1387.97 733.889C1386.47 731.769 1383.46 732.713 1381.78 730.642C1365.38 710.332 1346.41 691.847 1329.73 671.827L1329.95 815.035C1329.95 837.519 1329.45 862.328 1330.12 884.608L207.39 884.459L207.523 756.06C207.484 725.896 206.942 695.152 207.291 665.037C207.822 657.398 207.47 645.845 207.476 637.92C210.323 640.436 211.64 641.598 214.024 644.536C213.151 670.587 213.875 701.044 213.902 727.288L213.76 878.555L1324.4 878.741L1324.44 665.895C1306.95 643.482 1280.1 616.241 1264.23 592.31C1259.01 584.429 1257.37 520.436 1251 514.652L1250.11 513.983C1249.87 511.889 1251.26 510.538 1252.56 508.331L1252.56 507.761C1252.38 496.005 1250.59 479.067 1248.53 467.081C1247.41 460.515 1239.34 437.362 1235.46 431.952C1233.62 429.385 1216.28 428.062 1213.89 425.706L1215.04 425.452C1215.94 424.4 1215.58 418.992 1215.83 416.355L1217.03 415.779L1216.79 413.57L1216.29 409.461L1214.64 408.919C1208.52 413.772 1200.99 419.274 1195.19 424.191L1188.24 416.836L1187.53 417.471C1175.1 428.899 1174.3 444.907 1151.23 443.148C1143.32 442.545 1138.74 441.426 1132.67 435.645C1129.11 432.257 1129.13 426.893 1125.4 426.851C1116.82 426.756 1082.91 440.296 1076.9 436.854C1076.04 435.29 1073.24 433.13 1071.94 431.382C1060.7 416.295 1047.34 402.13 1036.31 387.004C1031.78 381.32 1003.47 349.918 1003.16 347.078C1008.39 343.636 1041.24 336.961 1049.18 335.346L1051.35 334.548C1051.52 330.994 1042.73 313.414 1040.78 309.264C1038.8 304.665 1035.01 297.288 1035.56 292.545C1040.44 288.096 1131.22 263.738 1144.8 259.923C1149.51 258.853 1154.92 257.333 1159.65 257.643L1162.5 256.242C1164.06 257.441 1165.59 258.789 1166.47 260.599C1180.4 289.465 1191.57 319.585 1205.51 348.451C1207.62 346.282 1216.37 337.817 1217.13 335.894C1223.93 319.108 1226.87 300.253 1231.26 282.748C1234.17 271.097 1235.6 247.782 1244.13 240.133C1234.39 233.975 1231.08 230.84 1222.56 222.993C1219.75 224.794 1216.44 226.173 1213.38 227.567C1213.82 222.784 1214.22 217.999 1214.58 213.21C1212.55 208.952 1204.26 194.928 1200.37 192.88C1198.22 193.723 1196.95 193.281 1194.88 192.587C1182.11 188.303 1177.95 182.858 1172.16 171.641C1176.49 172.328 1182.73 173.937 1185.97 170.516C1185.97 165.627 1180.45 164.049 1182.92 158.963C1186.08 157.856 1187.68 160.05 1189.73 159.966C1195.62 159.726 1205.34 150.177 1209.34 146.691C1210.92 145.656 1214.71 142.309 1216.34 140.942Z"/><path fill="white" transform="scale(0.333333 0.333984)" d="M1274.38 147.068C1278.2 145.665 1314.84 146.446 1321.86 146.518C1321.05 153.929 1321.38 166.314 1321.38 174.034L1321.4 225.166C1315.5 218.556 1297.25 199.485 1294 193.082C1286.92 179.106 1283.75 161.022 1274.38 147.068Z"/><path fill="white" transform="scale(0.333333 0.333984)" d="M1057.41 333.79C1055.36 325.731 1040.74 301.912 1044.86 296.105C1052.63 292.383 1149.62 262.936 1152.12 263.373C1156.29 266.725 1161.49 279.741 1163.56 285.053C1162.66 291.186 1176.42 310.336 1175.35 315.18L1174.6 315.081L1173.92 316.719C1171 310.429 1170.26 307.975 1163.34 306.857C1159.6 306.254 1157.49 298.847 1156.29 295.577C1153.82 288.44 1152.1 281.595 1145.94 277.067C1143 278.742 1140.2 278.668 1136.86 279.491C1128.43 282.209 1119.97 284.809 1111.46 287.29L1103.79 289.897C1102.97 290.594 1078.3 297.916 1076.24 298.18C1070.86 300.051 1067.07 301.373 1061.88 303.841C1057.8 309.339 1060.05 313.061 1062.44 318.8C1062.76 324.128 1068.09 328.576 1065.44 333.282C1063.15 334.277 1059.77 334.441 1057.41 333.79Z"/><path fill="#153B6B" transform="scale(0.333333 0.333984)" d="M1057.41 333.79C1055.36 325.731 1040.74 301.912 1044.86 296.105C1052.63 292.383 1149.62 262.936 1152.12 263.373C1156.29 266.725 1161.49 279.741 1163.56 285.053C1162.66 291.186 1176.42 310.336 1175.35 315.18L1174.6 315.081C1167.19 298.527 1159.54 282.085 1151.65 265.759C1147.25 266.578 1139.48 269.254 1134.91 270.626C1122.81 274.224 1110.74 277.955 1098.72 281.82C1084.35 286.388 1060.11 293.151 1046.96 298.615C1046.17 301.407 1058.04 328.253 1059.83 332.93C1061.25 332.577 1062.67 332.201 1064.08 331.804C1067.28 325.103 1054.85 318.28 1058.24 304.498L1061.88 303.841C1057.8 309.339 1060.05 313.061 1062.44 318.8C1062.76 324.128 1068.09 328.576 1065.44 333.282C1063.15 334.277 1059.77 334.441 1057.41 333.79Z"/><path fill="#153B6B" transform="scale(0.333333 0.333984)" d="M1118.52 281.948C1124.16 279.099 1140.01 273.906 1145.94 277.067C1143 278.742 1140.2 278.668 1136.86 279.491C1128.43 282.209 1119.97 284.809 1111.46 287.29L1110.04 286.686C1111.33 284.663 1115.16 285.809 1118.52 281.948Z"/><path fill="#2B5680" transform="scale(0.333333 0.333984)" d="M1096.42 288.644L1097.4 290.472C1100.28 290.817 1101.48 289.654 1103.79 289.897C1102.97 290.594 1078.3 297.916 1076.24 298.18C1077.37 297.411 1078.31 296.728 1079.4 295.907L1078.64 294.245L1096.42 288.644Z"/><path fill="#153B6B" transform="scale(0.333333 0.333984)" d="M1058.24 304.498C1061.89 297.546 1071.47 296.258 1078.64 294.245L1079.4 295.907C1078.31 296.728 1077.37 297.411 1076.24 298.18C1070.86 300.051 1067.07 301.373 1061.88 303.841L1058.24 304.498Z"/><path fill="#153B6B" transform="scale(0.333333 0.333984)" d="M1096.42 288.644C1103.42 286.309 1111.39 284.098 1118.52 281.948C1115.16 285.809 1111.33 284.663 1110.04 286.686L1111.46 287.29L1103.79 289.897C1101.48 289.654 1100.28 290.817 1097.4 290.472L1096.42 288.644Z"/><path fill="#00A8B5" transform="scale(0.333333 0.333984)" d="M1144.8 259.923C1149.51 258.853 1154.92 257.333 1159.65 257.643C1161.45 259.623 1163.02 261.532 1164.14 263.994C1174.96 287.821 1185.29 311.854 1195.27 336.044C1197.27 340.902 1200.2 346.305 1202.93 350.788L1197.73 355.944L1163.56 285.053C1161.49 279.741 1156.29 266.725 1152.12 263.373C1149.62 262.936 1052.63 292.383 1044.86 296.105C1040.74 301.912 1055.36 325.731 1057.41 333.79C1055.76 333.952 1052.86 334.142 1051.35 334.548C1051.52 330.994 1042.73 313.414 1040.78 309.264C1038.8 304.665 1035.01 297.288 1035.56 292.545C1040.44 288.096 1131.22 263.738 1144.8 259.923Z"/><path fill="#2B5680" transform="scale(0.333333 0.333984)" d="M1270.07 141.065L1326.78 141.023L1326.68 200.735C1326.68 206.292 1326.9 225.836 1326.13 230.453C1324.35 219.26 1327.61 145.226 1324.58 141.783L1323.3 142.051C1322.33 144.049 1322.29 144.321 1321.86 146.518C1314.84 146.446 1278.2 145.665 1274.38 147.068L1270.07 141.065Z"/><path fill="#027899" transform="scale(0.333333 0.333984)" d="M1136.86 279.491C1138.95 279.831 1138.29 279.338 1139.61 280.474L1136.98 281.791C1114.51 289.314 1091.18 294.827 1068.83 302.63C1054.57 307.611 1071.94 320.755 1072.51 330.421L1071.49 330.997C1063.8 327.955 1066.1 322.647 1062.44 318.8C1060.05 313.061 1057.8 309.339 1061.88 303.841C1067.07 301.373 1070.86 300.051 1076.24 298.18C1078.3 297.916 1102.97 290.594 1103.79 289.897L1111.46 287.29C1119.97 284.809 1128.43 282.209 1136.86 279.491Z"/><defs><linearGradient id="gradient_1" gradientUnits="userSpaceOnUse" x1="1154.0696" y1="289.20255" x2="1146.7384" y2="294.61676"><stop offset="0" stop-color="#0C4D85"/><stop offset="1" stop-color="#069"/></linearGradient></defs><path fill="url(#gradient_1)" transform="scale(0.333333 0.333984)" d="M1145.94 277.067C1152.1 281.595 1153.82 288.44 1156.29 295.577C1152.56 302.202 1160.87 304.389 1156.72 308.783C1152.13 305.801 1148.78 288.155 1144.04 283.647C1141.92 281.636 1140 281.946 1136.98 281.791L1139.61 280.474C1138.29 279.338 1138.95 279.831 1136.86 279.491C1140.2 278.668 1143 278.742 1145.94 277.067Z"/><path fill="white" transform="scale(0.333333 0.333984)" d="M1216.79 413.57C1217.83 410.117 1218.84 408.216 1219.92 405.05L1221.08 404.349C1221.69 407.082 1220.74 420.573 1219.77 423.429L1218.26 423.596L1216.89 422.183L1216.99 421.315C1217.17 419.633 1217.27 417.441 1217.03 415.779L1216.79 413.57Z"/><path fill="#CCE6E3" transform="scale(0.333333 0.333984)" d="M1174.6 315.081L1175.35 315.18C1176.79 320.33 1179.36 324.566 1180.68 329.871C1178.26 325.456 1175.95 321.344 1173.92 316.719L1174.6 315.081Z"/><path fill="white" transform="scale(0.333333 0.333984)" d="M1309.74 218.906C1311.92 220.049 1339.51 250.027 1341.86 253.929C1358.23 281.065 1353.72 327.039 1348.33 356.57C1344.28 378.767 1350.59 374.112 1329.11 381.704C1313.39 377.282 1291.14 368.809 1274.99 363.424C1279 359.34 1286.35 353.979 1291.1 350.066C1303.39 339.926 1315.41 329.415 1327.06 318.538C1328.96 316.758 1329.56 315.619 1329.55 313.304L1328.36 312.545C1325.73 313.718 1309.63 328.752 1306.36 331.69C1288.1 348.145 1268.93 362.516 1249.77 377.771L1195.33 418.835C1187.8 411.207 1175.51 394.568 1167.67 388.838C1201.5 359.541 1233.18 327.852 1262.47 294.015C1266.55 289.228 1282.47 273.074 1281.15 267.524C1276.09 270.672 1266.31 283.578 1262.03 288.862C1259.93 280.863 1258.12 268.792 1256.61 260.389C1270.46 250.431 1296.99 230.831 1309.74 218.906Z"/><path fill="#00A8B5" transform="scale(0.333333 0.333984)" d="M1160.57 310.665C1162.98 310.269 1163.18 310.225 1165.57 310.527C1170.01 314.171 1187.57 354.83 1191.05 362.604C1186.98 365.712 1165.16 385.201 1164.36 388.342C1165.07 389.484 1165.28 389.869 1166.24 390.838L1166.89 391.49C1165.04 394.196 1157.09 394.882 1153.58 395.575C1144.38 397.391 1137.52 400.193 1132.04 408.15C1130.14 410.911 1130.38 412.157 1130.97 414.86C1132.57 417.001 1133.41 417.246 1135.81 418.218L1136.56 418.516L1136.39 419.371C1131.64 422.57 1085.25 433.579 1079.16 434.021C1074.7 428.955 1070.47 423.509 1066.24 418.227C1046.55 395.427 1028.68 370.555 1007.7 347.985C1025.14 344.945 1047.22 339.245 1064.65 334.911C1095.84 327.154 1129.95 319.748 1160.57 310.665Z"/><path fill="#7F7E81" transform="scale(0.333333 0.333984)" d="M1439 405.118L1440.2 405.363C1446.56 413.975 1450.97 430.972 1456.59 440.605C1462.42 450.596 1457.72 464.871 1446.93 469.258C1439.84 472.143 1433.06 474.38 1425.75 476.771L1385.73 489.539C1366.95 495.588 1348.27 502.085 1329.32 507.522C1312.11 512.46 1299.69 501.492 1293 486.524C1288.82 476.778 1285.54 465.775 1281.75 455.625C1302.37 449.914 1325.18 440.267 1345.19 435.308C1347.93 443.814 1351.08 452.018 1353.77 460.662C1362.47 458.454 1376.35 453.043 1384.68 449.703C1382.12 441.388 1378.94 433.836 1375.54 425.842C1396.06 419.23 1418.79 412.332 1439 405.118Z"/><path fill="#7F7E81" transform="scale(0.333333 0.333984)" d="M1404.12 361.713C1426.37 360.47 1431.77 384.147 1438.97 400.729C1417.2 407.201 1395.9 415.202 1373.83 421.599C1372.11 417.359 1370.43 413.103 1368.79 408.833C1361.31 410.621 1347.72 416.149 1340.12 419.033L1343.36 431.147C1328.51 436.272 1313.14 440.926 1298.14 445.955C1292.24 447.882 1286.44 450.144 1280.63 452.336C1273.44 433.657 1273.38 420.252 1253 411.254C1303.27 394.487 1353.4 376.916 1404.12 361.713Z"/><path fill="white" transform="scale(0.333333 0.333984)" d="M1264.27 172.081C1267.87 172.795 1269.75 174.522 1272.72 176.697L1275.7 182.644C1275.16 187.749 1274.85 189.358 1273.3 194.241C1279.18 194.714 1284.81 195.086 1290.64 196.048L1297.05 204.706C1292.03 207.68 1270.97 224.137 1267.66 224.173C1267.34 219.68 1271.91 213.625 1271.73 208.389L1270.67 207.692C1263.25 212.682 1263.8 240.206 1242.94 235.169C1235.91 231.29 1229.94 225.26 1224.51 219.428L1218.04 222.427C1218.08 218.439 1217.9 214.29 1217.78 210.29C1213.29 203.82 1209.48 199.384 1206.1 192.181C1215.19 189.18 1226.96 181.562 1235.22 176.294C1239.13 177.198 1243.47 178.127 1247.08 179.841C1252.55 182.432 1264.97 190.417 1270.36 185.493C1268.34 182.258 1255.19 183.342 1264.27 172.081Z"/><path fill="white" transform="scale(0.333333 0.333984)" d="M1138.76 285.15C1145.62 286.588 1150.03 303.291 1152.53 309.703L1079.41 327.912L1077.77 328.314C1074.37 326.616 1067.94 312.299 1065.8 307.816C1072.77 304.704 1086.54 300.873 1094.18 298.547C1109.01 293.974 1123.87 289.508 1138.76 285.15Z"/><path fill="white" transform="scale(0.333333 0.333984)" d="M1167.41 396.188L1168.03 395.976C1171.63 396.883 1182.76 410.4 1186.06 414.091C1170.02 423.624 1171.48 451.097 1137.89 435.384C1134.88 433.37 1133.2 432.109 1133.11 428.33C1135.29 421.059 1148.09 418.236 1149.03 412.951C1144.64 412.042 1137.69 416.782 1133.48 414.09C1133.38 413.138 1133.53 412.597 1134.06 411.789C1143.13 397.882 1154.45 399.776 1167.41 396.188Z"/><path fill="#5D6C76" transform="scale(0.333333 0.333984)" d="M1251.13 415.946C1257.39 417.085 1262.38 420.648 1265.61 426.09C1277.55 447.066 1281.15 471.225 1291.77 493.143C1299 508.037 1305.67 504.831 1312.94 512.748L1311.48 513.924C1304.21 516.995 1300.04 517.088 1292.56 515.478C1277.97 503.317 1274.05 484.566 1268.31 467.265C1262.61 450.085 1257.34 432.973 1251.13 415.946Z"/><path fill="white" transform="scale(0.333333 0.333984)" d="M1252.76 380.177C1257.35 380.309 1285.64 391.71 1291.57 393.997C1275.91 399.751 1260.15 405.229 1244.29 410.428C1239.57 411.733 1236.22 412.906 1231.63 414.65C1232.66 418.198 1234.98 422.852 1234.98 426.359C1232.7 427.381 1228.27 426.374 1226.36 424.837C1224.04 420.016 1225.56 407.377 1225.95 401.334C1232.74 394.877 1244.89 386.343 1252.76 380.177Z"/><path fill="#E9ECEF" transform="scale(0.333333 0.333984)" d="M1356.96 319.983C1361.18 323.314 1383.03 354.98 1388.25 361.578C1383.39 362.887 1378.57 364.619 1373.8 366.25C1365.94 369.456 1356.68 372.508 1348.62 375.276C1353.98 356.52 1355.12 339.259 1356.96 319.983Z"/><path fill="#2B5680" transform="scale(0.333333 0.333984)" d="M1356.08 289.917C1360.62 292.514 1400.57 350.064 1403.61 356.473L1403.03 357.665L1392.85 360.656C1380.68 346.925 1368.76 327.086 1356.71 312.697C1356.03 305.654 1356.15 297.12 1356.08 289.917Z"/><path fill="#5D6C76" transform="scale(0.333333 0.333984)" d="M1244.05 415.039C1245.7 414.767 1245.62 414.671 1247.12 415.351C1256.99 437.526 1261.7 467.539 1272.06 490.181C1273.18 492.64 1280.42 507.846 1280.19 508.877L1277.93 507.438C1252.12 481.82 1247.82 450.756 1236.55 416.94L1244.05 415.039Z"/><path fill="#5D6C76" transform="scale(0.333333 0.333984)" d="M1271.75 365.973C1278.99 370.062 1312.19 380.198 1322.06 383.392C1318.16 385.226 1312 387.258 1307.8 388.783L1298.44 392.129C1288.56 388.817 1266.85 380.475 1258 376.282C1262.6 372.873 1267.18 369.437 1271.75 365.973Z"/><path fill="#CCE6E3" transform="scale(0.333333 0.333984)" d="M1298.95 207.779C1302.06 209.328 1305.08 213.324 1307.23 216.016C1298.65 224.184 1276.46 241.105 1265.96 249.914C1264.51 248.611 1258.67 238.194 1257.28 235.82C1268.94 229.079 1288.23 215.74 1298.95 207.779Z"/><path fill="white" transform="scale(0.333333 0.333984)" d="M1364.79 414.131L1366.03 414.187C1368.49 415.71 1374.73 434.851 1376.12 438.899C1368.92 441.312 1362.6 443.531 1355.56 446.342L1354.19 446.39C1351.72 444.661 1346.61 426.509 1344.11 421.032C1351.16 419.227 1358.07 416.921 1364.79 414.131Z"/><path fill="white" transform="scale(0.333333 0.333984)" d="M1411.02 717.075C1412.75 719.471 1412.47 718.454 1412.77 721.223C1410.23 726.942 1401.02 734.328 1394.76 734.574L1391.7 731.584C1391.88 730.502 1407.91 719.646 1411.02 717.075Z"/><path fill="white" transform="scale(0.333333 0.333984)" d="M1229.7 305.75C1231.93 307.369 1234.8 315.201 1235.99 318.102L1227.94 327.086C1226.34 328.81 1225.52 329.526 1223.68 330.998C1223.28 329.996 1228.93 309.218 1229.7 305.75Z"/><path fill="#2B5680" transform="scale(0.333333 0.333984)" d="M1377.04 442.842C1378.68 443.478 1379.09 444.505 1379.45 445.979C1377.14 449.138 1362.24 453.114 1357.64 454.55L1356.45 454.462C1354.88 452.657 1355.3 453.668 1355.07 451.366C1357.96 447.782 1371.8 444.391 1377.04 442.842Z"/><path fill="white" transform="scale(0.333333 0.333984)" d="M1247.76 240.072L1248.22 240.78C1243.8 246.581 1245.07 249.395 1245.88 256.758C1242.53 262.715 1240.16 268.766 1237.54 275.064L1237.29 275.44C1236.48 273.567 1238.02 268.467 1238.47 266.125C1240.36 256.208 1240.17 247.493 1247.76 240.072Z"/><path fill="#2B5680" transform="scale(0.333333 0.333984)" d="M1076.9 436.854C1073.11 436.839 1056.12 443.141 1050.98 444.313C994.575 457.196 928.502 449.857 883.635 410.616C859.104 389.16 845.622 360.459 843.754 327.976C841.768 293.464 852.424 260.9 875.795 235.175C905.348 202.48 949.061 188.654 992.193 187.004C1037.23 185.281 1083.58 197.755 1117.64 228.438C1122.8 233.087 1127.6 238.002 1132.18 243.223C1136.27 247.883 1139.85 253.518 1144.5 257.536L1143.44 258.498L1144.8 259.923C1131.22 263.738 1040.44 288.096 1035.56 292.545C1035.01 297.288 1038.8 304.665 1040.78 309.264C1042.73 313.414 1051.52 330.994 1051.35 334.548L1049.18 335.346C1041.24 336.961 1008.39 343.636 1003.16 347.078C1003.47 349.918 1031.78 381.32 1036.31 387.004C1047.34 402.13 1060.7 416.295 1071.94 431.382C1073.24 433.13 1076.04 435.29 1076.9 436.854Z"/><path fill="white" transform="scale(0.333333 0.333984)" d="M1036.31 387.004C1020.42 391.925 1004.38 394.339 987.908 392.116C945.226 386.355 916.455 348.67 923.157 305.849C930.494 258.973 975.41 240.346 1018.16 247.48C1039.4 251.025 1055.8 261.205 1068.29 278.647L1068.96 279.085C1057.92 285.191 1023.4 285.811 1035.74 301.167C1037.49 303.346 1037.17 306.774 1039.82 309.985L1040.78 309.264C1042.73 313.414 1051.52 330.994 1051.35 334.548L1049.18 335.346C1041.24 336.961 1008.39 343.636 1003.16 347.078C1003.47 349.918 1031.78 381.32 1036.31 387.004Z"/><path fill="#153B6B" transform="scale(0.333333 0.333984)" d="M1068.29 278.647L1068.96 279.085C1057.92 285.191 1023.4 285.811 1035.74 301.167C1037.49 303.346 1037.17 306.774 1039.82 309.985L1040.78 309.264C1042.73 313.414 1051.52 330.994 1051.35 334.548L1049.18 335.346C1046.15 323.942 1037.4 309.954 1032.8 298.781C1027.28 285.373 1058.24 281.103 1068.29 278.647Z"/><path fill="#2B5680" transform="scale(0.333333 0.333984)" d="M947.349 484.674L1052 484.576C1084.23 484.575 1133.55 481.976 1163.18 491.89C1159.9 496.811 1146.68 516.011 1146.22 521.007C1142.83 557.942 1144.34 596.804 1141.35 633.915C1140.9 639.47 1141.73 645.242 1140.92 650.151C1140.6 660.541 1141.25 674.439 1140.54 684.121C1140.43 693.725 1140.41 703.329 1140.51 712.932C1135.59 717.367 1130.97 719.653 1124.54 722.413C1116.4 725.915 1099.42 726.246 1097.63 736.955C1097.52 737.608 1097.6 741.797 1097.63 742.65L947.779 742.765L947.349 484.674Z"/><path fill="white" transform="scale(0.333333 0.333984)" d="M1028.02 636.489C1045.19 636.977 1136.66 632.095 1140.92 650.151C1140.6 660.541 1141.25 674.439 1140.54 684.121C1124.39 697.416 1088.59 695.091 1068.47 694.967C1054.98 694.802 1041.49 694.84 1028 695.079L1028.02 636.489Z"/><path fill="white" transform="scale(0.333333 0.333984)" d="M1030.82 534.508C1045.61 534.416 1060.6 534.298 1075.22 534.321C1094.08 534.351 1126.49 535.942 1124.78 562.014C1124.06 573.147 1122.58 577.146 1114.4 584.729C1097.4 594.97 1049.25 591.927 1028.12 591.845C1028.1 584.12 1027.3 539.008 1028.94 534.965L1030.82 534.508Z"/><path fill="#00A8B5" transform="scale(0.333333 0.333984)" d="M214.388 395.277C221.426 390.689 232.525 383.103 239.073 377.632C248.542 385.512 258.469 392.824 268.803 399.531C272.842 402.173 284.875 409.542 288.02 412.169C298.103 421.4 340.625 439.515 354.687 445.929C355.447 456.629 355.366 463.838 353.865 474.571C353.4 477.9 351.794 486.113 351.689 488.895C349.783 491.042 345.534 506.323 344.324 510.197C335.947 537.008 316.956 574.091 300.285 596.309C285.245 617.003 258.456 648.145 235.672 660.467C228.621 655.922 220.802 649.685 214.024 644.536C211.64 641.598 210.323 640.436 207.476 637.92C207.47 645.845 207.822 657.398 207.291 665.037L207.206 637.625C158.131 595.755 117.355 509.13 120.701 444.183C146.644 434.425 185.524 413.823 208.524 398.841L214.388 395.277Z"/><path fill="white" transform="scale(0.333333 0.333984)" d="M238.763 390.315C243.298 393.368 247.938 396.69 252.299 399.998C280.615 421.479 313.692 437.256 345.587 452.444C345.772 458.615 345.241 465.69 344.334 471.819C334.453 538.585 289.962 608.38 236.611 648.646C233.152 648.8 213.214 630.638 209.832 627.183C164.391 580.744 131.199 517.434 130.211 451.547C138.797 446.53 156.698 438.911 166.661 433.951C191.953 421.593 216.083 406.989 238.763 390.315Z"/><path fill="#00A8B5" transform="scale(0.333333 0.333984)" d="M238.387 417.01C267.308 438.29 290.438 452.099 323.279 466.542C315.483 516.171 289.495 563.588 255.379 600.178C249.962 605.988 242.227 613.745 235.974 618.565L234.966 618.473C227.066 612.582 213.457 597.394 207.235 589.669C184.106 560.952 165.816 528.269 156.372 492.469C154.227 484.338 152.77 475.08 151.146 466.711C157.936 462.752 167.46 458.855 174.656 455.153C194.816 444.783 221.545 431.799 238.387 417.01Z"/><path fill="white" transform="scale(0.333333 0.333984)" d="M238.137 427.518C240.91 427.808 268.543 447.069 274.575 450.391C288.028 457.8 301.69 464.731 315.505 471.553C303.84 524.286 276.192 572.133 236.333 608.566C235.133 608.045 232.941 606.345 231.955 605.473C200.087 577.29 163.3 512.764 159.289 470.674C190.334 456.725 209.433 445.634 238.137 427.518Z"/><path fill="#00A8B5" transform="scale(0.333333 0.333984)" d="M233.313 498.306C244.116 495.981 254.765 502.832 257.131 513.629C259.496 524.427 252.687 535.104 241.901 537.511C231.058 539.93 220.314 533.075 217.936 522.22C215.558 511.365 222.452 500.644 233.313 498.306Z"/><path fill="#2B5680" transform="scale(0.333333 0.333984)" d="M316.412 374.366C352.663 392.576 393.405 408.734 434.718 397.89C457.872 391.813 464.093 366.552 440.249 356.444C435.92 354.594 432.011 353.179 427.455 352.07C381.584 340.897 317.394 340.951 296.935 289.049C290.681 273.184 291.432 252.31 298.667 236.788C331.546 165.986 466.951 179.271 518.439 212.891C509.675 228.24 501.289 243.802 493.289 259.563C463.221 246.878 417.105 230.225 384.482 242.575C361.348 251.332 364.966 271.797 389.512 279.763C435.851 294.803 499.557 293.003 526.029 340.963C534.36 356.254 534.048 377.37 528.578 393.261C505.214 452.537 423.616 459.666 369.688 449.519C364.932 448.624 359.065 447.398 354.687 445.929C340.625 439.515 298.103 421.4 288.02 412.169C296.876 400.507 308.52 386.233 316.412 374.366Z"/><path fill="#2B5680" transform="scale(0.333333 0.333984)" d="M351.689 488.895C400.257 471.092 460.548 478.835 507.524 499.158C510.128 500.285 516.7 503.776 518.995 505.327C510.992 519.88 501.284 536.759 493.907 551.483C464.396 538.924 417.772 525.518 386.595 537.464C362.465 546.71 368.969 569.122 393.653 576.75C438.975 590.754 499.084 589.117 525.271 635.102C533.882 650.474 532.437 672.438 527.01 688.479C497.435 761.117 388.171 756.403 329.309 735.805C313.81 730.481 298.925 723.511 284.911 715.015C295.583 700.536 307.626 684.84 317.588 670.024C353.822 688.276 392.503 703.069 433.956 693.167C454.366 688.292 463.163 662.757 440.308 653.305C392.723 634.317 335.372 640.522 300.285 596.309C316.956 574.091 335.947 537.008 344.324 510.197C345.534 506.323 349.783 491.042 351.689 488.895Z"/><defs><linearGradient id="gradient_2" gradientUnits="userSpaceOnUse" x1="1053.0005" y1="636.27191" x2="1281.3601" y2="535.92096"><stop offset="0" stop-color="#1E4777"/><stop offset="1" stop-color="#355E82"/></linearGradient></defs><path fill="url(#gradient_2)" transform="scale(0.333333 0.333984)" d="M1214.64 408.919L1216.29 409.461L1216.79 413.57L1217.03 415.779L1215.83 416.355C1215.58 418.992 1215.94 424.4 1215.04 425.452L1213.89 425.706C1216.28 428.062 1233.62 429.385 1235.46 431.952C1239.34 437.362 1247.41 460.515 1248.53 467.081C1250.59 479.067 1252.38 496.005 1252.56 507.761L1252.56 508.331C1251.26 510.538 1249.87 511.889 1250.11 513.983L1251 514.652C1241.28 525.745 1226.88 535.223 1215.99 545.046C1215 556.987 1205.71 605.328 1201.54 615.791L1201.32 616.831C1199.18 622.948 1196.67 637.357 1195.22 644.258C1191.44 662.162 1187.46 680.024 1183.28 697.84C1181.88 704.083 1180.21 714.613 1178.54 720.282L1177.2 721.646L1177.26 721.918C1178.33 732.937 1180.6 742.159 1166.64 742.331C1143.68 742.614 1120.59 742.941 1097.63 742.65C1097.6 741.797 1097.52 737.608 1097.63 736.955C1099.42 726.246 1116.4 725.915 1124.54 722.413C1130.97 719.653 1135.59 717.367 1140.51 712.932C1140.41 703.329 1140.43 693.725 1140.54 684.121C1141.25 674.439 1140.6 660.541 1140.92 650.151C1141.73 645.242 1140.9 639.47 1141.35 633.915C1144.34 596.804 1142.83 557.942 1146.22 521.007C1146.68 516.011 1159.9 496.811 1163.18 491.89C1171.04 481.463 1178.17 470.205 1185.93 459.765C1195.24 447.237 1204.31 435.678 1213.08 422.748C1213.25 418.209 1214.02 413.441 1214.64 408.919Z"/><path fill="#153B6B" transform="scale(0.333333 0.333984)" d="M1178.54 720.282C1178.24 719.951 1178.14 719.882 1177.92 719.429C1175.88 715.222 1195.87 625.405 1198.57 618.909C1199.39 616.928 1199.59 616.638 1201.54 615.791L1201.32 616.831C1199.18 622.948 1196.67 637.357 1195.22 644.258C1191.44 662.162 1187.46 680.024 1183.28 697.84C1181.88 704.083 1180.21 714.613 1178.54 720.282Z"/><path fill="white" transform="scale(0.333333 0.333984)" d="M1144.87 716.435C1148.23 716.688 1155.32 718.388 1158.71 719.201L1159.43 720.563C1154.04 723.47 1148.74 720.218 1144.87 716.435Z"/><path fill="#2B5680" transform="scale(0.333333 0.333984)" d="M208.545 140.843L1216.34 140.942C1214.71 142.309 1210.92 145.656 1209.34 146.691C1196.78 146.066 1181.83 146.411 1169.15 146.39L1098.05 146.296L878.975 146.213L214.347 146.128L214.388 395.277L208.524 398.841L208.545 140.843Z"/><path fill="#2B5680" transform="scale(0.333333 0.333984)" d="M1178.54 720.282C1180.21 714.613 1181.88 704.083 1183.28 697.84C1187.46 680.024 1191.44 662.162 1195.22 644.258C1196.67 637.357 1199.18 622.948 1201.32 616.831C1225.41 645.793 1227.74 685.129 1198.13 712.674C1192.8 717.638 1184.56 721.197 1177.26 721.918L1177.2 721.646L1178.54 720.282Z"/><path fill="#153B6B" transform="scale(0.333333 0.333984)" d="M1144.5 257.536C1151.91 254.911 1155.4 252.991 1162.5 256.242L1159.65 257.643C1154.92 257.333 1149.51 258.853 1144.8 259.923L1143.44 258.498L1144.5 257.536Z"/><path fill="#00A8B5" transform="scale(0.333333 0.333984)" d="M486.868 763.303L960.946 763.664L1116.23 763.753L1163.71 763.893C1182.17 763.962 1200.13 761.382 1214.56 775.234C1222.66 782.868 1227.35 793.439 1227.57 804.569C1227.75 815.059 1223.66 825.171 1216.24 832.588C1198.42 850.441 1166.08 846.006 1142.33 845.968L1050.99 845.907L571.875 846.072L420.933 846.036L375.498 845.988C366.597 845.98 357.951 845.904 349.042 845.573C327.635 844.779 310.073 828.701 309.86 806.475C309.696 796.295 313.673 786.484 320.88 779.293C339.989 759.904 378.852 763.587 404.501 763.545L486.868 763.303Z"/><path fill="white" transform="scale(0.333333 0.333984)" d="M436.348 782.399C448.891 780.929 460.264 789.871 461.798 802.409C463.333 814.947 454.452 826.369 441.926 827.969C429.307 829.581 417.784 820.618 416.239 807.988C414.693 795.357 423.713 783.879 436.348 782.399Z"/><path fill="#00A8B5" transform="scale(0.333333 0.333984)" d="M435.163 790.318C443.384 788.135 451.833 792.967 454.122 801.161C456.411 809.355 451.69 817.868 443.529 820.264C438.154 821.841 432.346 820.405 428.326 816.503C424.306 812.601 422.696 806.837 424.112 801.416C425.527 795.995 429.749 791.755 435.163 790.318Z"/><path fill="white" transform="scale(0.333333 0.333984)" d="M728.954 783.288C736.889 781.355 745.25 783.84 750.842 789.794C756.434 795.747 758.393 804.249 755.969 812.05C753.545 819.851 747.114 825.745 739.133 827.48C727.006 830.115 715.014 822.508 712.227 810.411C709.441 798.315 716.896 786.226 728.954 783.288Z"/><path fill="#00A8B5" transform="scale(0.333333 0.333984)" d="M730.738 790.547C738.759 788.588 746.865 793.439 748.933 801.434C751.001 809.429 746.264 817.602 738.3 819.781C733.05 821.217 727.433 819.715 723.6 815.85C719.767 811.985 718.311 806.355 719.789 801.115C721.267 795.876 725.451 791.838 730.738 790.547Z"/><path fill="white" transform="scale(0.333333 0.333984)" d="M936.855 784.132C948.754 781.042 960.917 788.135 964.09 800.015C967.263 811.895 960.258 824.11 948.403 827.368C936.43 830.658 924.068 823.565 920.864 811.566C917.659 799.567 924.837 787.253 936.855 784.132Z"/><path fill="#00A8B5" transform="scale(0.333333 0.333984)" d="M937.322 790.062C940.127 789.873 943.068 789.733 945.802 790.503C950.146 791.756 953.809 794.696 955.974 798.666C961.119 808.307 955.939 817.277 946.665 821.402C944.234 821.878 941.533 821.926 939.111 821.335C935.171 820.374 931.768 817.898 929.641 814.445C927.294 810.517 926.666 805.796 927.905 801.392C929.446 795.713 932.513 792.884 937.322 790.062Z"/><path fill="white" transform="scale(0.333333 0.333984)" d="M780.942 783.477C782.559 783.575 783.19 783.785 784.713 784.191C787.215 786.467 803.84 822.014 804.847 826.283C803.319 827.252 800.369 826.906 798.4 826.873C795.505 824.88 794.939 821.459 793.763 817.912L784.875 817.759L773.127 817.78L769.355 827.272L761.138 827.132C767.418 812.437 774.021 797.881 780.942 783.477Z"/><path fill="#00A8B5" transform="scale(0.333333 0.333984)" d="M782.772 795.048C784.799 797.144 790.174 808.122 789.347 811.007L786.937 811.258L776.275 811.297C778.319 805.925 780.623 800.401 782.772 795.048Z"/><path fill="white" transform="scale(0.333333 0.333984)" d="M581.48 783.774C583.89 783.679 585.629 783.377 587.839 784.276C590.854 787.518 589.408 796.621 589.377 802.064L613.677 802.052C613.78 796.441 612.085 789.146 614.689 785.04C616.705 783.7 618.604 783.066 620.62 784.689C621.937 793.475 621.194 817.325 621.09 827.306C620.543 827.335 619.996 827.361 619.449 827.382C612.663 827.64 612.931 824.466 613.265 818.509C613.434 815.507 613.477 812.209 613.549 809.184L588.972 809.236C589.088 813.237 590.117 824.613 587.664 827.222C585.175 827.423 584.236 827.763 582.153 826.639C581.197 823.503 581.48 789.642 581.48 783.774Z"/><path fill="white" transform="scale(0.333333 0.333984)" d="M483.585 783.573C483.68 794.229 479.506 816.826 491.969 820.475C513.71 826.841 505.202 794.832 507.848 783.541C509.662 781.885 508.605 782.347 511.189 782.264C516.232 784.498 515.328 784.98 515.392 790.025C515.488 799.775 517.322 816.03 509.926 823.421C503.274 830.069 487.963 829.95 481.491 823.246C473.105 814.561 475.491 794.606 475.635 783.327L483.585 783.573Z"/><path fill="white" transform="scale(0.333333 0.333984)" d="M1138.41 784.431C1145.84 784.362 1162.36 783.792 1168.76 785.01C1169.83 786.75 1169.43 786.938 1169.44 789.374L1168.19 790.593C1162.84 792.094 1152.24 791.418 1146.32 791.315L1146.3 802.752C1152.47 802.612 1162.31 801.744 1167.56 804.917L1167.7 807.334C1162.29 810.417 1153.78 809.626 1147.55 809.482L1146.73 810.038C1145.8 812.486 1146.16 817.697 1146.2 820.576C1152.5 820.69 1164.39 819.108 1169.12 821.942C1170.5 824.379 1170.23 823.256 1169.91 826.324C1167.4 828.393 1142.69 827.379 1138.44 827.351L1138.41 784.431Z"/><path fill="white" transform="scale(0.333333 0.333984)" d="M387.238 781.939C395.022 782.544 396.833 783.312 403.626 787.243C403.413 787.552 401.01 791.041 401.001 791.046C393.818 795.103 381.773 782.112 379.091 795.31C382.669 804.252 417.177 803.557 401.061 823.074C397.256 827.683 392.059 827.917 386.553 828.232C378.66 827.168 376.605 826.354 369.857 822.101C370.426 821.315 373.463 817.023 373.609 817.011C377.654 816.679 397.922 829 395.853 814.235C391.325 807.481 372.107 808.691 371.1 797.988C370.088 787.234 378.081 783.326 387.238 781.939Z"/><path fill="white" transform="scale(0.333333 0.333984)" d="M825.31 783.335C833.764 782.75 837.055 783.788 844.3 787.896L840.554 793.665C834.919 790.871 822.05 785.788 820.725 796.014C824.798 803.126 844.934 802.11 846.04 813.833C846.938 823.358 838.804 826.812 830.876 827.862C822.372 827.604 819.277 826.465 812.103 821.839C813.197 819.623 813.73 818.908 815.23 816.93C818.507 816.201 838.947 829.105 838.109 813.965C834.302 807.297 816.678 809.135 813.776 800.029C810.668 790.274 816.922 785.748 825.31 783.335Z"/><path fill="white" transform="scale(0.333333 0.333984)" d="M1106.04 783.314C1115.93 782.434 1119.68 783.577 1127.14 789.531C1125.95 791.092 1124.54 793.467 1123.45 795.176C1120.99 793.612 1118.5 791.829 1115.67 790.935C1097.7 785.248 1090.32 811.004 1104.62 819.328C1108.76 821.739 1113.22 820.802 1117.53 819.369C1119.59 818.073 1119.96 817.762 1122.24 817.05C1124.8 817.801 1124.08 817.182 1125.27 819.152C1124.94 823.129 1120.59 826.231 1117.01 827.202C1086.75 835.396 1075.25 791.535 1106.04 783.314Z"/><path fill="white" transform="scale(0.333333 0.333984)" d="M682.961 783.282C689.454 782.754 701.226 783.032 703.501 790.639C703.023 791.345 700.816 793.789 699.94 793.372C664.713 776.578 664.017 830.668 695.869 818.961C697.485 817.886 697.695 817.865 699.448 817.213C702.171 818.362 702.184 819.265 704.184 821.903C695.803 827.25 686.96 830.351 677.378 825.721C671.941 823.08 667.83 818.317 666.011 812.552C661.363 798.271 669.418 787.427 682.961 783.282Z"/><path fill="white" transform="scale(0.333333 0.333984)" d="M1021.65 784.259C1026.72 784.221 1048.22 783.131 1051.47 785.473C1051.76 787.657 1051.75 787.722 1050.72 789.724C1046.8 792.865 1035.64 791.404 1029.71 791.335L1029.72 803.822C1035.45 803.677 1047.66 802.324 1051.28 805.38C1051.02 806.64 1050.73 807.784 1050.42 809.027C1047.13 811.382 1034.54 810.268 1029.72 810.199C1029.72 814.764 1031.02 824.25 1027.96 827.308C1025 827.297 1024.39 827.76 1022.06 826.398C1020.89 817.894 1021.61 794.101 1021.65 784.259Z"/><path fill="white" transform="scale(0.333333 0.333984)" d="M978.367 783.977C983.767 784.03 1007.24 783.045 1010.13 785.131C1010.42 787.807 1010.62 786.747 1009.38 789.137C1005.12 792.013 991.463 790.688 985.477 790.635L985.47 802.188C992.214 802.114 998.505 802.075 1005.24 802.325C1005.3 804.766 1005.38 805.131 1004.77 807.451C1000.85 810.387 991.22 808.986 985.487 808.916L985.613 815.612C985.658 818.757 986.216 824.561 984.044 826.793C982.21 826.923 980.6 827.315 979.117 826.402C977.799 821.385 978.351 791.347 978.367 783.977Z"/><path fill="white" transform="scale(0.333333 0.333984)" d="M529.32 783.838C535.383 783.812 565.714 782.671 567.681 785.272C567.743 787.681 568.201 788.003 567.073 789.442C563.255 790.612 556.241 790.155 552.004 790.09C552.185 797.068 552.148 804.319 552.213 811.323C552.333 815.247 553.28 824.699 550.853 827.32C548.355 827.618 547.962 827.657 545.509 827.147C543.42 824.596 544.531 795.911 544.613 790.378C540.432 790.371 533.954 791.288 530.79 789.85C528.838 787.401 529.458 787.618 529.32 783.838Z"/><path fill="white" transform="scale(0.333333 0.333984)" d="M853.431 783.725C862.056 783.777 881.743 783.044 888.976 784.212L889.665 785.283C889.729 788.18 890.198 787.902 888.872 789.816C885.442 791.006 878.93 790.473 875.058 790.375L875.256 812.073C875.187 816.548 876.522 822.312 874.369 825.61C872.44 826.865 869.991 827.582 868.118 825.981C866.998 818.634 867.669 798.88 867.761 790.598C863.612 790.595 857.747 791.62 854.524 789.883C852.961 787.4 853.473 786.962 853.431 783.725Z"/><path fill="white" transform="scale(0.333333 0.333984)" d="M1065.08 784.405C1068.08 784.317 1070.87 783.946 1073.17 785.58C1074.21 794.425 1073.61 817.208 1073.59 827.089C1070.51 827.453 1069.6 827.653 1066.44 827.008C1064.53 824.718 1065.16 790.334 1065.08 784.405Z"/><path fill="#2B5680" transform="scale(0.333333 0.333984)" d="M822.848 484.786C843.081 484.156 866.397 484.61 886.898 484.555L886.841 743.295C861.979 743.14 837.116 743.134 812.255 743.277L812.218 604.715C810.161 608.33 807.758 612.266 805.463 615.742C784.75 647.114 766.773 680.954 746.721 712.591C731.69 712.623 716.66 712.51 701.632 712.251C694.756 702.302 686.358 687.825 679.699 677.226L637.879 611.348C638.198 630.931 638.263 650.517 638.076 670.101C637.908 694.276 637.493 719.389 637.996 743.491C613.429 743.033 587.88 743.367 563.237 743.388L563.202 485.224L630.645 485.306C635.093 493.687 642.683 505.301 647.776 513.457L678.014 561.851L704.288 603.85C710.582 614.102 718.687 628.209 725.846 637.45C756.678 586.465 791.752 535.891 822.848 484.786Z"/><path fill="#2B5680" transform="scale(0.333333 0.333984)" d="M700.035 186.358C751.775 183.582 790.983 198.142 830.157 231.156C814.393 245.59 797.236 259.449 781.031 273.511C758.44 254.385 738.667 245.465 708.928 246.048C613.588 247.917 602.936 381.35 699.698 393.078C731.554 396.939 756.87 385.273 781.384 365.988L796.607 377.506C807.849 386.517 819.43 395.374 830.774 404.297C776.117 464.128 658.59 464.743 596.805 414.182C544.415 371.309 539.869 291.247 582.997 239.964C612.661 204.691 655.052 190.092 700.035 186.358Z"/></svg>